<svg width="141" height="144" viewBox="0 0 141 144" fill="none" xmlns="http://www.w3.org/2000/svg">
<g filter="url(#filter0_f_3_3)">
<path d="M112.937 15.0019V15.002C112.936 15.002 112.935 15.002 112.935 15.0019C112.803 15.0064 112.609 15.0194 112.546 15.0252C112.454 15.0343 112.38 15.0443 112.365 15.0464L112.363 15.0466C112.318 15.0528 112.283 15.0583 112.274 15.0596L112.273 15.0597C112.249 15.0635 112.23 15.0667 112.224 15.0676L112.183 15.0745L112.107 15.0875C112.051 15.0974 111.974 15.111 111.884 15.1276C111.705 15.1604 111.457 15.2074 111.189 15.2628C110.93 15.3163 110.607 15.3871 110.292 15.4688L110.272 15.4738C110.117 15.5139 109.672 15.6285 109.185 15.8333L103.655 17.9555C79.4837 27.2322 56.3937 39.1121 34.7932 53.3851C32.374 54.7499 30.7818 57.3536 31.148 60.345C31.5091 63.2946 33.6271 65.4317 36.1049 66.3265C36.1056 66.3268 36.1064 66.327 36.1072 66.3273L60.2793 75.062L18.2246 116.018L18.0528 116.186L17.8978 116.369C16.7507 117.723 15.6826 119.779 16.0842 122.251C16.4878 124.735 18.1556 126.291 19.5842 127.092C22.2817 128.603 25.7325 128.523 28.5366 127.419L28.6197 127.387L28.7015 127.351L41.6328 121.722C70.0198 109.364 97.0819 94.1635 122.405 76.3521C123.346 75.7873 124.277 74.9762 124.966 73.8736C124.967 73.8726 124.967 73.8717 124.968 73.8707C125.76 72.602 126.163 71.0413 125.938 69.4089L125.938 69.4088C125.716 67.7924 124.93 66.4672 123.992 65.5106C123.063 64.5639 121.951 63.931 120.878 63.5417L120.873 63.5399L97.1973 54.9774L120.062 26.6024L120.063 26.6017C121.01 25.426 121.649 23.8628 121.588 22.1076L121.587 22.1003L121.587 22.093C121.461 18.7954 119.217 16.8999 117.605 16.0663C116.033 15.2532 114.308 14.974 112.937 15.0019Z" stroke="#FCF097" stroke-width="10"/>
</g>
<path d="M112.937 15.0019V15.002C112.936 15.002 112.935 15.002 112.935 15.0019C112.803 15.0064 112.609 15.0194 112.546 15.0252C112.454 15.0343 112.38 15.0443 112.365 15.0464L112.363 15.0466C112.318 15.0528 112.283 15.0583 112.274 15.0596L112.273 15.0597C112.249 15.0635 112.23 15.0667 112.224 15.0676L112.183 15.0745L112.107 15.0875C112.051 15.0974 111.974 15.111 111.884 15.1276C111.705 15.1604 111.457 15.2074 111.189 15.2628C110.93 15.3163 110.607 15.3871 110.292 15.4688L110.272 15.4738C110.117 15.5139 109.672 15.6285 109.185 15.8333L103.655 17.9555C79.4837 27.2322 56.3937 39.1121 34.7932 53.3851C32.374 54.7499 30.7818 57.3536 31.148 60.345C31.5091 63.2946 33.6271 65.4317 36.1049 66.3265C36.1056 66.3268 36.1064 66.327 36.1072 66.3273L60.2793 75.062L18.2246 116.018L18.0528 116.186L17.8978 116.369C16.7507 117.723 15.6826 119.779 16.0842 122.251C16.4878 124.735 18.1556 126.291 19.5842 127.092C22.2817 128.603 25.7325 128.523 28.5366 127.419L28.6197 127.387L28.7015 127.351L41.6328 121.722C70.0198 109.364 97.0819 94.1635 122.405 76.3521C123.346 75.7873 124.277 74.9762 124.966 73.8736C124.967 73.8726 124.967 73.8717 124.968 73.8707C125.76 72.602 126.163 71.0413 125.938 69.4089L125.938 69.4088C125.716 67.7924 124.93 66.4672 123.992 65.5106C123.063 64.5639 121.951 63.931 120.878 63.5417L120.873 63.5399L97.1973 54.9774L120.062 26.6024L120.063 26.6017C121.01 25.426 121.649 23.8628 121.588 22.1076L121.587 22.1003L121.587 22.093C121.461 18.7954 119.217 16.8999 117.605 16.0663C116.033 15.2532 114.308 14.974 112.937 15.0019Z" fill="url(#paint0_linear_3_3)" stroke="#FCF097" stroke-width="10"/>
<defs>
<filter id="filter0_f_3_3" x="0.99588" y="3.05176e-05" width="140.005" height="143.238" filterUnits="userSpaceOnUse" color-interpolation-filters="sRGB">
<feFlood flood-opacity="0" result="BackgroundImageFix"/>
<feBlend mode="normal" in="SourceGraphic" in2="BackgroundImageFix" result="shape"/>
<feGaussianBlur stdDeviation="5" result="effect1_foregroundBlur_3_3"/>
</filter>
<linearGradient id="paint0_linear_3_3" x1="71" y1="20" x2="71" y2="123.239" gradientUnits="userSpaceOnUse">
<stop stop-color="#2B3EEB"/>
<stop offset="0.635417" stop-color="#500FCB"/>
</linearGradient>
</defs>
</svg>
